<svg width="431" height="431" viewBox="0 0 431 431" fill="none" xmlns="http://www.w3.org/2000/svg">
<path d="M323.25 323.25C382.759 263.741 382.759 167.259 323.25 107.75C263.741 48.2413 167.259 48.2413 107.75 107.75C48.2413 167.259 48.2413 263.741 107.75 323.25C167.259 382.759 263.741 382.759 323.25 323.25Z" fill="#EAE5DF"/>
<path d="M117.835 308.028L132.352 365.826" stroke="black" stroke-miterlimit="10"/>
<path d="M186.835 194.557L140.199 201.633C140.199 201.633 135.559 203.338 117.199 202.377C98.8401 201.417 83.4842 211.496 78.0725 227.204C76.0431 233.062 72.079 243.101 67.939 253.613C72.9975 273.175 81.9067 291.532 94.1454 307.609C99.1421 308.138 104.166 308.363 109.19 308.285C109.19 308.285 111.896 318.378 114.94 329.932C142.123 353.884 176.978 367.322 213.204 367.815C225.119 363.935 236.646 358.953 247.636 352.932L242.225 293.024C242.225 293.024 257.553 288.451 271.083 273.109C274.046 269.767 241.318 213.837 231.848 202.377C222.377 190.918 186.835 194.557 186.835 194.557Z" fill="#7E7B44"/>
<path d="M207.259 288.399C218.047 273.286 214.541 252.29 199.428 241.502C184.315 230.714 163.319 234.22 152.531 249.333C141.743 264.446 145.249 285.443 160.362 296.23C175.475 307.018 196.471 303.512 207.259 288.399Z" fill="#EFD79A"/>
<path d="M169.653 255.737L171.642 267.684" stroke="#7E7B44" stroke-linecap="round" stroke-linejoin="round"/>
<path d="M185.306 253.112L187.309 265.072" stroke="#7E7B44" stroke-linecap="round" stroke-linejoin="round"/>
<path d="M200.581 262.867C201.379 268.403 199.977 274.032 196.676 278.547C193.376 283.063 188.439 286.107 182.922 287.028C177.405 287.95 171.747 286.675 167.158 283.476C162.569 280.278 159.415 275.411 158.37 269.916" stroke="#7E7B44" stroke-linecap="round" stroke-linejoin="round"/>
<path d="M134.883 202.445C134.883 202.445 156.435 223.984 176.229 218.748C193.303 214.243 189.893 194.314 189.893 194.314" stroke="#514D27" stroke-width="0.75" stroke-linecap="round" stroke-linejoin="round"/>
<path d="M130.148 162.006C130.148 162.006 138.928 174.575 140.2 201.633C140.2 201.633 159.276 216.516 172.671 214.486C186.065 212.457 186.782 194.53 186.782 194.53C180.287 185.244 176.268 174.455 175.106 163.183L130.148 162.006Z" fill="#FFB48C"/>
<path d="M163.795 178.999C170.344 177.971 174.416 175.63 176.959 173.113C176.103 169.864 175.501 166.553 175.16 163.21L130.148 162.006C131.753 164.562 133.077 167.283 134.098 170.123C141.567 174.845 153.242 180.649 163.795 178.999Z" fill="#EF8D6F"/>
<path d="M99.95 142.307C99.95 142.307 80.17 99.1073 76.1924 89.8396C72.2147 80.572 85.4059 74.822 85.4059 74.822C85.4059 74.822 81.2118 62.6456 96.8382 47.425C112.465 32.2044 143.921 39.3074 156.435 26.1162C156.435 26.1162 155.42 36.9397 150.685 43.028C150.685 43.028 175.715 29.1603 200.744 47.7632C200.744 47.7632 200.744 63.9985 194.317 75.8367C194.317 75.8367 200.744 70.7632 204.126 56.8956C204.126 56.8956 213.597 91.2738 190.597 106.724L99.95 142.307Z" fill="#D86224"/>
<path d="M145.341 43.0285C145.341 43.0285 167.596 23.4109 201.082 43.0285" stroke="#D86224" stroke-width="0.5" stroke-linecap="round" stroke-linejoin="round"/>
<path d="M200.744 47.7637C200.744 47.7637 191.95 61.2931 166.92 61.9695" stroke="#FF8326" stroke-width="0.5" stroke-linecap="round" stroke-linejoin="round"/>
<path d="M159.168 54.8662C169.577 57.875 180.575 58.2193 191.151 55.8674" stroke="#FF8326" stroke-width="0.5" stroke-linecap="round" stroke-linejoin="round"/>
<path d="M135.627 54.1631C167.786 45.396 184.116 63.2819 192.45 92.5054C200.785 121.729 200.649 155.106 177.284 162.561C153.919 170.015 120.731 168.771 106.525 138.965C92.3194 109.16 87.7059 67.2054 135.627 54.1631Z" fill="#FFB48C"/>
<path d="M176.445 83.6568C171.441 82.9231 166.597 81.3496 162.117 79.0027C166.176 73.618 176.445 76.8651 176.445 83.6568Z" fill="#D86224"/>
<path d="M145.34 81.4109C143.054 83.7921 140.619 86.0921 138.576 88.6627C136.168 90.9221 134.679 94.0744 132.393 96.4691C131.675 94.6466 131.462 92.6642 131.776 90.7308C132.091 88.7974 132.921 86.9846 134.179 85.4833C136.587 82.4121 141.39 79.8686 145.34 81.4109Z" fill="#D86224"/>
<path d="M174.037 139.601C174.037 139.601 158.289 147.516 145.882 136.286" stroke="#EF8D6F" stroke-width="0.75" stroke-linecap="round" stroke-linejoin="round"/>
<path d="M170.113 104.222C170.668 106.535 172.292 108.132 173.726 107.78C175.16 107.428 175.877 105.29 175.322 102.977C174.767 100.663 173.157 99.0669 171.71 99.4187C170.262 99.7705 169.559 101.976 170.113 104.222Z" fill="#3A130E"/>
<path d="M140.389 111.582C140.944 113.895 142.567 115.478 144.001 115.14C145.435 114.802 146.152 112.637 145.598 110.323C145.043 108.01 143.433 106.427 141.985 106.765C140.538 107.103 139.834 109.268 140.389 111.582Z" fill="#3A130E"/>
<path d="M129.086 143.468C138.695 142.012 145.516 134.434 144.32 126.541C143.124 118.648 134.365 113.429 124.755 114.885C115.146 116.341 108.326 123.92 109.522 131.813C110.718 139.706 119.477 144.924 129.086 143.468Z" fill="#F27F52"/>
<path d="M191.625 99.405C192.468 99.2797 193.317 99.2074 194.169 99.1885C196.449 108.484 197.54 118.03 197.416 127.6C196.902 127.708 196.387 127.817 195.86 127.884C186.267 129.318 177.527 124.069 176.364 116.195C175.2 108.321 182.033 100.826 191.625 99.405Z" fill="#F27F52"/>
<path d="M159.168 89.8398C159.168 89.8398 159.547 103.802 167.285 115.465C167.285 115.465 179.678 112.65 180.977 114.883C182.276 117.115 174.213 131.118 174.213 131.118" fill="#FFB48C"/>
<path d="M159.168 89.8398C159.168 89.8398 159.547 103.802 167.285 115.465C167.285 115.465 179.678 112.65 180.977 114.883C182.276 117.115 174.213 131.118 174.213 131.118" stroke="#EF8D6F" stroke-width="0.75" stroke-linecap="round" stroke-linejoin="round"/>
<path d="M111.45 81.0997C129.715 81.4108 151.362 59.6015 150.685 43.0279C155.42 36.9397 156.435 26.1162 156.435 26.1162C143.921 39.3074 112.451 32.2044 96.9059 47.425C81.3606 62.6456 85.4059 74.822 85.4059 74.822C85.4059 74.822 72.2147 80.572 76.1924 89.8396C78.763 95.8196 87.9224 115.951 94.0918 129.467C124.506 117.994 111.45 81.0997 111.45 81.0997Z" fill="#FF8326"/>
<path d="M85 68.7071C85 68.7071 91.0476 53.4054 113.412 51.9442C135.776 50.483 143.907 48.4401 150.672 43.0283" stroke="#D86224" stroke-width="0.5" stroke-linecap="round" stroke-linejoin="round"/>
<path d="M156.435 26.1162C152.447 32.7207 147.096 38.3978 140.738 42.7678C134.38 47.1379 127.162 50.1002 119.567 51.4568" stroke="#D86224" stroke-width="0.5" stroke-linecap="round" stroke-linejoin="round"/>
<path d="M75.935 83.6567C75.935 83.6567 86.0144 103.396 113.953 103.653" stroke="#D86224" stroke-width="0.5" stroke-linecap="round" stroke-linejoin="round"/>
<path d="M113.412 149.775L101.235 126.044C101.235 126.044 90.3033 111.162 78.5328 120.213C68.1692 128.236 93.9563 163.507 113.412 149.775Z" fill="#FFB48C"/>
<path d="M100.762 125.382C101.1 125.788 101.29 126.045 101.29 126.045L113.466 149.775C101.29 158.366 86.6238 147.773 79.9133 136.665C84.3374 126.897 93.6456 125.111 100.762 125.382Z" fill="#EF8D6F"/>
<path d="M207.968 194.314C207.968 194.314 234.093 238.961 242.211 293.079C242.211 293.079 257.54 288.506 271.069 273.163C274.032 269.821 241.305 213.891 231.834 202.432C227.437 197.074 217.425 195.004 207.968 194.314Z" fill="#969269"/>
<path d="M241.143 286.598C241.143 286.598 255.227 281.633 269.92 267.657" stroke="#514D27" stroke-width="0.75" stroke-linecap="round" stroke-linejoin="round"/>
<path d="M230.319 81.2759L257.621 123.352L207.116 145.919L193.992 125.761L230.319 81.2759Z" fill="#371315"/>
<path d="M306.517 81.2759L279.201 123.352L329.706 145.919L342.83 125.761L306.517 81.2759Z" fill="#371315"/>
<path d="M351.718 283.824C341.625 236.769 325.89 205.787 325.89 205.787C325.89 205.787 337.702 197.777 340.421 191.297C343.14 184.816 335.835 147.813 325.89 136.381C315.946 124.948 288.36 122.973 268.418 122.973C248.475 122.973 220.875 124.948 210.931 136.381C200.987 147.813 193.681 184.816 196.414 191.297C199.147 197.777 210.931 205.787 210.931 205.787C210.931 205.787 175.971 274.597 176.878 362.93C210.673 371.744 246.469 368.698 278.289 354.301C310.109 339.904 336.028 315.027 351.718 283.824V283.824Z" fill="#D0915E"/>
<path d="M298.764 180.094C317.002 189.565 331.668 186.399 340.8 182.002C339.515 168.378 333.494 145.04 325.918 136.381C317.354 126.531 295.707 123.704 277.117 123.108C275.372 136.489 274.411 167.377 298.764 180.094Z" fill="#AD7041"/>
<path d="M176.878 362.146C176.878 362.768 176.702 362.89 177.379 363.052C177.852 363.188 178.339 363.31 178.813 363.418C179.787 363.661 180.747 363.891 181.721 364.108C183.841 364.595 185.965 365.046 188.094 365.461C192.234 366.218 196.414 366.814 200.609 367.206C209.216 368.047 217.879 368.151 226.504 367.517C228.574 367.368 230.644 367.179 232.714 366.935C233.512 366.854 235 366.935 235.528 366.327C236.055 365.718 236.705 364.879 237.287 364.148C239.393 361.425 241.336 358.579 243.104 355.625C246.823 349.441 249.691 342.783 251.628 335.831C255.855 320.901 254.587 304.949 248.056 290.873C242.81 279.735 234.799 270.126 224.786 262.962C217.373 257.689 209.147 253.667 200.433 251.056C198.931 250.596 197.429 250.177 195.9 249.811L194.101 249.392C193.465 251.449 192.829 253.519 192.234 255.602C189.808 263.846 187.661 272.167 185.794 280.564C179.709 307.346 176.699 334.735 176.824 362.2L176.878 362.146Z" fill="#AD7041"/>
<path d="M351.529 283.229C347.138 262.741 341.079 242.646 333.413 223.145C326.649 228.827 323.131 237.283 322.103 245.888C320.479 259.499 323.713 274.841 331.749 286.084C334.438 289.877 337.766 293.173 341.585 295.825C342.018 296.123 342.465 296.407 342.938 296.691C343.412 296.975 343.858 297.57 344.291 296.894C345.211 295.446 346.104 293.971 346.997 292.483C347.89 290.995 348.715 289.493 349.54 287.978C350.176 286.733 351.881 284.623 351.529 283.229Z" fill="#AD7041"/>
<path d="M193.992 125.76C192.18 121.241 225.313 80.1256 230.319 81.2756C235.325 82.4256 243.754 135.041 240.182 140.196C236.61 145.351 199.404 139.317 193.992 125.76Z" fill="#AD7041"/>
<path d="M342.829 125.76C344.642 121.241 311.522 80.1256 306.516 81.2756C301.51 82.4256 293.068 135.041 296.64 140.196C300.212 145.351 337.417 139.317 342.829 125.76Z" fill="#D0915E"/>
<g style="mix-blend-mode:multiply">
<path d="M243.7 273.434C243.7 273.434 236.407 302.346 252.142 317.661C252.142 317.661 249.071 307.649 252.142 301.291C252.142 301.291 252.142 320.381 279.715 325.238C279.715 325.238 284.112 313.575 283.571 302.535C283.571 302.535 286.791 310.653 286.195 316.065C286.195 316.065 297.506 311.478 298.697 293.471" stroke="#EDC8B9" stroke-width="0.75" stroke-linejoin="round"/>
</g>
<path d="M234.905 173.086C237.864 173.086 240.263 170.173 240.263 166.578C240.263 162.984 237.864 160.071 234.905 160.071C231.946 160.071 229.548 162.984 229.548 166.578C229.548 170.173 231.946 173.086 234.905 173.086Z" fill="#3A130E"/>
<path d="M234.905 173.086C237.868 173.086 240.317 170.164 240.317 166.579C240.319 165.532 240.107 164.497 239.695 163.535L229.886 168.703C230.137 169.878 230.761 170.94 231.666 171.73C232.571 172.52 233.708 172.996 234.905 173.086Z" fill="#231012"/>
<path d="M233.986 165.916C233.986 167.269 233.471 168.311 232.836 168.311C232.2 168.311 231.686 167.242 231.686 165.916C231.686 164.59 232.2 163.535 232.836 163.535C233.471 163.535 233.986 164.604 233.986 165.916Z" fill="#EFF6FE"/>
<path d="M307.288 166.578C307.288 170.164 304.879 173.086 301.876 173.086C298.872 173.086 296.464 170.164 296.464 166.578C296.464 162.993 298.859 160.071 301.876 160.071C304.893 160.071 307.288 162.98 307.288 166.578Z" fill="#3A130E"/>
<path d="M301.917 173.086C304.88 173.086 307.329 170.164 307.329 166.579C307.33 165.532 307.118 164.497 306.706 163.535L296.897 168.703C297.148 169.878 297.773 170.94 298.678 171.73C299.583 172.52 300.719 172.996 301.917 173.086V173.086Z" fill="#231012"/>
<path d="M300.997 165.916C300.997 167.269 300.483 168.311 299.847 168.311C299.211 168.311 298.697 167.242 298.697 165.916C298.697 164.59 299.211 163.535 299.847 163.535C300.483 163.535 300.997 164.604 300.997 165.916Z" fill="#EFF6FE"/>
<path d="M268.418 180.094C268.287 182.443 267.389 184.684 265.861 186.473C264.334 188.262 262.261 189.501 259.962 189.998V203.094C259.962 205.337 260.853 207.488 262.438 209.073C264.024 210.659 266.175 211.55 268.418 211.55C270.66 211.55 272.811 210.659 274.397 209.073C275.983 207.488 276.874 205.337 276.874 203.094V189.998C274.572 189.505 272.497 188.268 270.969 186.478C269.44 184.688 268.544 182.445 268.418 180.094V180.094Z" fill="#F49A8E"/>
<path d="M268.418 180.081V200.253" stroke="#E27169" stroke-linecap="round" stroke-linejoin="round"/>
<path d="M268.417 161.694C259.583 161.694 245.945 163.67 246.283 168.594C246.622 173.519 258.46 179.107 268.417 180.094C278.294 179.107 290.227 173.519 290.551 168.594C290.876 163.67 277.252 161.694 268.417 161.694Z" fill="#231012"/>
<path d="M293.123 181.515C293.123 181.515 292.405 190.39 280.54 190.39C268.675 190.39 268.364 180.094 268.364 180.094C268.364 180.094 268.107 190.39 256.187 190.39C244.268 190.39 243.605 181.515 243.605 181.515" stroke="#231012" stroke-linecap="round" stroke-linejoin="round"/>
<path d="M326.283 206.571C319.762 209.588 294.8 220.277 268.418 220.277C242.036 220.277 217.006 209.588 210.539 206.571C210.052 207.586 209.186 209.548 207.833 212.389C212.42 218.247 230.833 238.095 268.391 238.095C305.949 238.095 324.348 218.193 328.948 212.389C327.717 209.548 326.77 207.586 326.283 206.571Z" fill="#EFD79A"/>
<path d="M283.144 260.488C285.067 252.343 280.022 244.182 271.877 242.259C263.733 240.337 255.571 245.381 253.649 253.526C251.727 261.671 256.771 269.832 264.916 271.755C273.061 273.677 281.222 268.633 283.144 260.488Z" fill="#F89D4A"/>
<path d="M247.407 261.974L286.196 235.105" stroke="#EFD79A" stroke-width="3" stroke-miterlimit="10"/>
<path d="M249.098 269.524L287.887 242.668" stroke="#EFD79A" stroke-width="5" stroke-miterlimit="10"/>
<path d="M279.392 259.602C280.825 253.53 277.064 247.445 270.992 246.012C264.92 244.579 258.835 248.339 257.402 254.412C255.969 260.484 259.73 266.569 265.802 268.002C271.874 269.435 277.959 265.674 279.392 259.602Z" fill="#B2552D"/>
<path d="M279.715 257.023C279.715 254.788 279.052 252.604 277.811 250.746C276.569 248.889 274.805 247.441 272.741 246.586C270.676 245.73 268.405 245.507 266.214 245.943C264.022 246.379 262.009 247.455 260.429 249.034C258.849 250.614 257.773 252.627 257.338 254.819C256.902 257.01 257.125 259.282 257.98 261.346C258.835 263.41 260.283 265.174 262.141 266.416C263.999 267.657 266.183 268.32 268.418 268.32C269.903 268.325 271.374 268.036 272.747 267.471C274.12 266.905 275.368 266.073 276.418 265.023C277.468 263.973 278.3 262.725 278.866 261.352C279.431 259.979 279.72 258.508 279.715 257.023V257.023Z" fill="#D46327"/>
<path d="M268.418 228.854V243.723" stroke="white" stroke-width="2" stroke-linecap="round" stroke-linejoin="round"/>
<path d="M268.012 315.28C267.836 313.643 246.027 316.01 248.638 315.172C251.249 314.333 277.293 305.187 274.993 304.023C272.693 302.86 242.212 307.325 246.69 305.633C251.168 303.942 280.405 291.942 278.254 289.763C276.103 287.585 242.861 300.587 245.323 298.558C247.786 296.528 275.575 279.359 273.857 277.763C272.139 276.166 257.527 283.567 253.901 285.718C250.275 287.869 225.3 297.462 223.798 296.339C222.296 295.216 224.19 292.456 227.965 287.139C231.74 281.822 231.889 276.315 230.915 273.447C229.562 269.524 226.179 272.094 220.646 281.565C217.25 287.436 211.351 292.388 204.41 298.273C198.999 302.846 197.646 313.048 197.321 317.296C173.834 320.272 130.445 324.967 122.449 323.343C118.594 322.559 117.335 283.797 118.201 262.461C119.473 231.262 115.982 219.357 95.5259 224.714C80.0618 228.773 71.633 244.819 76.666 305.092C79.913 343.949 94.1054 369.046 105.24 371.846C114.142 374.092 174.443 352.323 206.426 339.457C211.933 338.104 225.53 332.192 237.152 327.822C248.773 323.452 268.296 317.715 268.012 315.28Z" fill="#FFB48C"/>
<path d="M122.706 306.067C123.951 303.97 128.294 215.677 95.6476 206.91C87.3868 211.153 81.0852 218.424 78.0594 227.204C72.6476 242.898 53.2465 288.573 54.1529 293.024C55.0594 297.475 77.5994 308.745 109.177 308.285C115.482 308.312 121.353 308.312 122.706 306.067Z" fill="#969269"/>
<path d="M54.5588 290.156C54.5588 290.156 77.7076 304.456 123.166 302.481" stroke="#514D27" stroke-width="0.75" stroke-linecap="round" stroke-linejoin="round"/>
</svg>
