<svg width="28" height="84" viewBox="0 0 28 84" fill="none" xmlns="http://www.w3.org/2000/svg">
<path d="M28 13.8809C28 10.1995 26.5251 6.66879 23.8996 4.06563C21.2741 1.46245 17.713 0 14 0C10.287 0 6.72602 1.46245 4.10051 4.06563C1.47499 6.66879 0 10.1995 0 13.8809V55.8554L11.5294 64.0462V84H16.4706V64.0462L28 55.8554V13.8809ZM23.0588 37.356L16.4706 43.8882V37.7643L23.0588 31.2321V37.356ZM5.04412 31.2321L11.6324 37.7643V43.8882L5.04412 37.356V31.2321ZM23.0588 24.2916L14 33.2734L4.94118 24.0875V17.9636L14 26.9453L23.0588 17.9636V24.2916ZM14 4.89915C15.9923 4.90788 17.9268 5.56393 19.5071 6.76677C21.0875 7.96961 22.2265 9.65293 22.75 11.5589L14 20.209L5.25 11.5589C5.75426 9.63397 6.88514 7.92782 8.46725 6.70523C10.0493 5.48261 11.9942 4.81186 14 4.79706V4.89915ZM4.94118 53.3803V44.1944L11.5294 50.7266V58.0243L4.94118 53.3803ZM16.4706 58.0498V50.7266L23.0588 44.1944V53.3548L16.4706 58.0498Z" fill="white"/>
</svg>
